<?xml version="1.0" encoding="utf-8" standalone="yes"?><svg xmlns="http://www.w3.org/2000/svg" xmlns:xlink="http://www.w3.org/1999/xlink" version="1.1" width="1257" height="938"><defs><clipPath id="clip1"><path d="M-1.5,-1.5 L1.5,-1.5 L1.5,1.5 L-1.5,1.5 Z" clip-rule="evenodd" /></clipPath><clipPath id="clip10"><path d="M10.169271469,253.067703247 L38.169273376,253.067703247 L38.169273376,271.067687988 L10.169271469,271.067687988 Z" clip-rule="evenodd" /></clipPath><clipPath id="clip11"><path d="M10.169271469,186.067703247 L38.169273376,186.067703247 L38.169273376,204.067703247 L10.169271469,204.067703247 Z" clip-rule="evenodd" /></clipPath><clipPath id="clip12"><path d="M10.169271469,118.067710876 L38.169273376,118.067710876 L38.169273376,136.067718506 L10.169271469,136.067718506 Z" clip-rule="evenodd" /></clipPath><clipPath id="clip13"><path d="M10.169271469,51.067710876 L38.169273376,51.067710876 L38.169273376,69.067710876 L10.169271469,69.067710876 Z" clip-rule="evenodd" /></clipPath><clipPath id="clip14"><path d="M892,325 L965,325 L965,353 L892,353 Z" clip-rule="evenodd" /></clipPath><clipPath id="clip15"><path d="M892,325 L965,325 L965,353 L892,353 Z" clip-rule="evenodd" /></clipPath><clipPath id="clip2"><path d="M-1.5,-1.5 L1.5,-1.5 L1.5,1.5 L-1.5,1.5 Z" clip-rule="evenodd" /></clipPath><clipPath id="clip3"><path d="M-1.5,-1.5 L843.5,-1.5 L843.5,597.5 L-1.5,597.5 Z" clip-rule="evenodd" /></clipPath><clipPath id="clip4"><path d="M-46.853515625,-15.578125 L48.146484375,-15.578125 L48.146484375,17.421875 L-46.853515625,17.421875 Z" clip-rule="evenodd" /></clipPath><clipPath id="clip5"><path d="M17.584636688,590.067687988 L45.584636688,590.067687988 L45.584636688,608.067687988 L17.584636688,608.067687988 Z" clip-rule="evenodd" /></clipPath><clipPath id="clip6"><path d="M17.584636688,523.067687988 L45.584636688,523.067687988 L45.584636688,541.067687988 L17.584636688,541.067687988 Z" clip-rule="evenodd" /></clipPath><clipPath id="clip7"><path d="M11.169271469,455.067718506 L39.169273376,455.067718506 L39.169273376,473.067718506 L11.169271469,473.067718506 Z" clip-rule="evenodd" /></clipPath><clipPath id="clip8"><path d="M11.169271469,388.067718506 L39.169273376,388.067718506 L39.169273376,406.067718506 L11.169271469,406.067718506 Z" clip-rule="evenodd" /></clipPath><clipPath id="clip9"><path d="M10.169271469,320.067718506 L38.169273376,320.067718506 L38.169273376,338.067718506 L10.169271469,338.067718506 Z" clip-rule="evenodd" /></clipPath></defs><g transform="scale(1.33333)"><g transform="translate(0.134979248,0)"><rect x="0" y="0" width="942.480041504" height="703.440063477" style="fill: #ffffff; stroke: #000000; stroke-width: 1" /><g><g /><g /><g /></g><g clip-path="url(#clip1)" /><g clip-path="url(#clip2)" /><g transform="matrix(1,0,0,1,50.400001526,54.000003815)" clip-path="url(#clip3)"><g><g transform="matrix(0.75,0,0,0.75,0,0)"><g><path d="M0,0 L975,0 L975,637 L0,637 L0,0 L0,0 L0,0 Z" transform="matrix(1,0,0,1,0,0)" fill="#ffffff" fill-rule="evenodd" /><path d="M0,0 L974,0 L974,636 L0,636 L0,0 L0,0 L0,0 Z" transform="matrix(1,0,0,1,0,0)" stroke-width="1" stroke-miterlimit="10" stroke="#898989" fill="none" fill-rule="evenodd" /><path d="M46,60 L884,60 L884,599 L46,599 L46,60 L46,60 L46,60 Z" transform="matrix(1,0,0,1,0,0)" fill="#ffffff" fill-rule="evenodd" /><path d="M46,599 L884,599 " transform="matrix(1,0,0,1,0,0)" stroke-width="1" stroke-miterlimit="10" stroke="#898989" fill="none" fill-rule="evenodd" /><path d="M46,531.625 L884,531.625 " transform="matrix(1,0,0,1,0,0)" stroke-width="1" stroke-miterlimit="10" stroke="#898989" fill="none" fill-rule="evenodd" /><path d="M46,464.25 L884,464.25 " transform="matrix(1,0,0,1,0,0)" stroke-width="1" stroke-miterlimit="10" stroke="#898989" fill="none" fill-rule="evenodd" /><path d="M46,396.875 L884,396.875 " transform="matrix(1,0,0,1,0,0)" stroke-width="1" stroke-miterlimit="10" stroke="#898989" fill="none" fill-rule="evenodd" /><path d="M46,329.5 L884,329.5 " transform="matrix(1,0,0,1,0,0)" stroke-width="1" stroke-miterlimit="10" stroke="#898989" fill="none" fill-rule="evenodd" /><path d="M46,262.125 L884,262.125 " transform="matrix(1,0,0,1,0,0)" stroke-width="1" stroke-miterlimit="10" stroke="#898989" fill="none" fill-rule="evenodd" /><path d="M46,194.75 L884,194.75 " transform="matrix(1,0,0,1,0,0)" stroke-width="1" stroke-miterlimit="10" stroke="#898989" fill="none" fill-rule="evenodd" /><path d="M46,127.375 L884,127.375 " transform="matrix(1,0,0,1,0,0)" stroke-width="1" stroke-miterlimit="10" stroke="#898989" fill="none" fill-rule="evenodd" /><path d="M46,60 L884,60 " transform="matrix(1,0,0,1,0,0)" stroke-width="1" stroke-miterlimit="10" stroke="#898989" fill="none" fill-rule="evenodd" /><path d="M87.900001526,531.625 L143.766662598,531.625 L143.766662598,599 L87.900001526,599 L87.900001526,531.625 L87.900001526,531.625 L87.900001526,531.625 Z" transform="matrix(1,0,0,1,0,0)" fill="#568ed4" fill-rule="evenodd" /><path d="M227.566680908,396.875 L283.433349609,396.875 L283.433349609,599 L227.566680908,599 L227.566680908,396.875 L227.566680908,396.875 L227.566680908,396.875 Z" transform="matrix(1,0,0,1,0,0)" fill="#568ed4" fill-rule="evenodd" /><path d="M367.233337402,329.5 L423.100006104,329.5 L423.100006104,599 L367.233337402,599 L367.233337402,329.5 L367.233337402,329.5 L367.233337402,329.5 Z" transform="matrix(1,0,0,1,0,0)" fill="#568ed4" fill-rule="evenodd" /><path d="M506.899993896,262.125 L562.766662598,262.125 L562.766662598,599 L506.899993896,599 L506.899993896,262.125 L506.899993896,262.125 L506.899993896,262.125 Z" transform="matrix(1,0,0,1,0,0)" fill="#568ed4" fill-rule="evenodd" /><path d="M646.566711426,194.75 L702.433349609,194.75 L702.433349609,599 L646.566711426,599 L646.566711426,194.75 L646.566711426,194.75 L646.566711426,194.75 Z" transform="matrix(1,0,0,1,0,0)" fill="#568ed4" fill-rule="evenodd" /><path d="M786.233398438,127.375 L842.100097656,127.375 L842.100097656,599 L786.233398438,599 L786.233398438,127.375 L786.233398438,127.375 L786.233398438,127.375 Z" transform="matrix(1,0,0,1,0,0)" fill="#568ed4" fill-rule="evenodd" /><text transform="matrix(1,0,0,1,487,26)" clip-path="url(#clip4)"><tspan x="-46.853515625" y="14.15234375" font-family="Arial Unicode MS" font-weight="bold" font-style="normal" font-size="24" fill="#000000">Discount</tspan></text><path d="M46,599 L884,599 " transform="matrix(1,0,0,1,0,0)" stroke-width="1" stroke-miterlimit="10" stroke="#898989" fill="none" fill-rule="evenodd" /><text transform="matrix(1,0,0,1,0,0)"><tspan x="112.5" y="625.584594727" font-family="Arial Unicode MS" font-weight="normal" font-style="normal" font-size="13.333333015" fill="#000000">1</tspan></text><path d="M46,599 L46,603 " transform="matrix(1,0,0,1,0,0)" stroke-width="1" stroke-miterlimit="10" stroke="#898989" fill="none" fill-rule="evenodd" /><path d="M185.666671753,599 L185.666671753,603 " transform="matrix(1,0,0,1,0,0)" stroke-width="1" stroke-miterlimit="10" stroke="#898989" fill="none" fill-rule="evenodd" /><text transform="matrix(1,0,0,1,0,0)"><tspan x="245.072265625" y="625.584594727" font-family="Arial Unicode MS" font-weight="normal" font-style="normal" font-size="13.333333015" fill="#000000">2-5</tspan></text><path d="M325.333343506,599 L325.333343506,603 " transform="matrix(1,0,0,1,0,0)" stroke-width="1" stroke-miterlimit="10" stroke="#898989" fill="none" fill-rule="evenodd" /><text transform="matrix(1,0,0,1,0,0)"><tspan x="381.364593506" y="625.584594727" font-family="Arial Unicode MS" font-weight="normal" font-style="normal" font-size="13.333333015" fill="#000000">6-10</tspan></text><path d="M465,599 L465,603 " transform="matrix(1,0,0,1,0,0)" stroke-width="1" stroke-miterlimit="10" stroke="#898989" fill="none" fill-rule="evenodd" /><text transform="matrix(1,0,0,1,0,0)"><tspan x="517.156921387" y="625.584594727" font-family="Arial Unicode MS" font-weight="normal" font-style="normal" font-size="13.333333015" fill="#000000">11-15</tspan></text><path d="M604.666687012,599 L604.666687012,603 " transform="matrix(1,0,0,1,0,0)" stroke-width="1" stroke-miterlimit="10" stroke="#898989" fill="none" fill-rule="evenodd" /><text transform="matrix(1,0,0,1,0,0)"><tspan x="657.156921387" y="625.584594727" font-family="Arial Unicode MS" font-weight="normal" font-style="normal" font-size="13.333333015" fill="#000000">16-20</tspan></text><path d="M744.333312988,599 L744.333312988,603 " transform="matrix(1,0,0,1,0,0)" stroke-width="1" stroke-miterlimit="10" stroke="#898989" fill="none" fill-rule="evenodd" /><text transform="matrix(1,0,0,1,0,0)"><tspan x="802.084655762" y="625.584594727" font-family="Arial Unicode MS" font-weight="normal" font-style="normal" font-size="13.333333015" fill="#000000">21+</tspan></text><path d="M884,599 L884,603 " transform="matrix(1,0,0,1,0,0)" stroke-width="1" stroke-miterlimit="10" stroke="#898989" fill="none" fill-rule="evenodd" /><path d="M46,60 L46,599 " transform="matrix(1,0,0,1,0,0)" stroke-width="1" stroke-miterlimit="10" stroke="#898989" fill="none" fill-rule="evenodd" /><text transform="matrix(1,0,0,1,0,0)" clip-path="url(#clip5)"><tspan x="17.584636688" y="606.584594727" font-family="Arial Unicode MS" font-weight="normal" font-style="normal" font-size="13.333333015" fill="#000000">0%</tspan></text><path d="M42,599 L46,599 " transform="matrix(1,0,0,1,0,0)" stroke-width="1" stroke-miterlimit="10" stroke="#898989" fill="none" fill-rule="evenodd" /><text transform="matrix(1,0,0,1,0,0)" clip-path="url(#clip6)"><tspan x="17.584636688" y="539.584594727" font-family="Arial Unicode MS" font-weight="normal" font-style="normal" font-size="13.333333015" fill="#000000">5%</tspan></text><path d="M42,531.625 L46,531.625 " transform="matrix(1,0,0,1,0,0)" stroke-width="1" stroke-miterlimit="10" stroke="#898989" fill="none" fill-rule="evenodd" /><text transform="matrix(1,0,0,1,0,0)" clip-path="url(#clip7)"><tspan x="11.169271469" y="471.584655762" font-family="Arial Unicode MS" font-weight="normal" font-style="normal" font-size="13.333333015" fill="#000000">10%</tspan></text><path d="M42,464.25 L46,464.25 " transform="matrix(1,0,0,1,0,0)" stroke-width="1" stroke-miterlimit="10" stroke="#898989" fill="none" fill-rule="evenodd" /><text transform="matrix(1,0,0,1,0,0)" clip-path="url(#clip8)"><tspan x="11.169271469" y="404.584655762" font-family="Arial Unicode MS" font-weight="normal" font-style="normal" font-size="13.333333015" fill="#000000">15%</tspan></text><path d="M42,396.875 L46,396.875 " transform="matrix(1,0,0,1,0,0)" stroke-width="1" stroke-miterlimit="10" stroke="#898989" fill="none" fill-rule="evenodd" /><text transform="matrix(1,0,0,1,0,0)" clip-path="url(#clip9)"><tspan x="10.169271469" y="336.584655762" font-family="Arial Unicode MS" font-weight="normal" font-style="normal" font-size="13.333333015" fill="#000000">20%</tspan></text><path d="M42,329.5 L46,329.5 " transform="matrix(1,0,0,1,0,0)" stroke-width="1" stroke-miterlimit="10" stroke="#898989" fill="none" fill-rule="evenodd" /><text transform="matrix(1,0,0,1,0,0)" clip-path="url(#clip10)"><tspan x="10.169271469" y="269.584625244" font-family="Arial Unicode MS" font-weight="normal" font-style="normal" font-size="13.333333015" fill="#000000">25%</tspan></text><path d="M42,262.125 L46,262.125 " transform="matrix(1,0,0,1,0,0)" stroke-width="1" stroke-miterlimit="10" stroke="#898989" fill="none" fill-rule="evenodd" /><text transform="matrix(1,0,0,1,0,0)" clip-path="url(#clip11)"><tspan x="10.169271469" y="202.584625244" font-family="Arial Unicode MS" font-weight="normal" font-style="normal" font-size="13.333333015" fill="#000000">30%</tspan></text><path d="M42,194.75 L46,194.75 " transform="matrix(1,0,0,1,0,0)" stroke-width="1" stroke-miterlimit="10" stroke="#898989" fill="none" fill-rule="evenodd" /><text transform="matrix(1,0,0,1,0,0)" clip-path="url(#clip12)"><tspan x="10.169271469" y="134.584640503" font-family="Arial Unicode MS" font-weight="normal" font-style="normal" font-size="13.333333015" fill="#000000">35%</tspan></text><path d="M42,127.375 L46,127.375 " transform="matrix(1,0,0,1,0,0)" stroke-width="1" stroke-miterlimit="10" stroke="#898989" fill="none" fill-rule="evenodd" /><text transform="matrix(1,0,0,1,0,0)" clip-path="url(#clip13)"><tspan x="10.169271469" y="67.584640503" font-family="Arial Unicode MS" font-weight="normal" font-style="normal" font-size="13.333333015" fill="#000000">40%</tspan></text><path d="M42,60 L46,60 " transform="matrix(1,0,0,1,0,0)" stroke-width="1" stroke-miterlimit="10" stroke="#898989" fill="none" fill-rule="evenodd" /><path d="M892,325 L965,325 L965,353 L892,353 L892,325 L892,325 L892,325 Z" transform="matrix(1,0,0,1,0,0)" fill="#000000" fill-opacity="0" fill-rule="evenodd" /><path d="M895,335 L903,335 L903,343 L895,343 L895,335 L895,335 L895,335 Z" transform="matrix(1,0,0,1,0,0)" clip-path="url(#clip14)" fill="#568ed4" fill-rule="evenodd" /><text transform="matrix(1,0,0,1,0,0)" clip-path="url(#clip15)"><tspan x="907" y="347.016937256" font-family="Arial Unicode MS" font-weight="normal" font-style="normal" font-size="13.333333015" fill="#000000">Discount</tspan></text><path d="M0,0 L0,0 L0,0 L0,0 L0,0 L0,0 Z" transform="matrix(1,0,0,1,0,0)" stroke-width="1" stroke-miterlimit="10" stroke="#898989" fill="none" fill-rule="evenodd" /></g></g></g><g /></g></g></g></svg>