<?xml version="1.0" encoding="utf-8" standalone="yes"?><svg xmlns="http://www.w3.org/2000/svg" xmlns:xlink="http://www.w3.org/1999/xlink" version="1.1" width="266" height="162"><defs><clipPath id="clip1"><path d="M-1.5,-1.5 L1.5,-1.5 L1.5,1.5 L-1.5,1.5 Z" clip-rule="evenodd" /></clipPath><clipPath id="clip2"><path d="M-1.5,-1.5 L1.5,-1.5 L1.5,1.5 L-1.5,1.5 Z" clip-rule="evenodd" /></clipPath><clipPath id="clip3"><path d="M-1.5,-1.5 L100.5,-1.5 L100.5,15.5 L-1.5,15.5 Z" clip-rule="evenodd" /></clipPath><clipPath id="clip4"><path d="M-0.300000012,-0.300000012 L99.299995422,-0.300000012 L99.299995422,13.800000191 L-0.300000012,13.800000191 Z" clip-rule="evenodd" /></clipPath></defs><g transform="scale(1.33333)"><g><rect x="0" y="0" width="199.799987793" height="121.5" style="fill: #ffffff; stroke: #000000; stroke-width: 1" /><g><g /><g /><g /></g><g clip-path="url(#clip1)" /><g clip-path="url(#clip2)" /><g transform="matrix(1,0,0,1,50.400001526,54.000003815)" clip-path="url(#clip3)"><g /><g /><g><g clip-path="url(#clip4)"><g transform="matrix(1,0,0,1,1,13.875)"><text transform="matrix(1,0,0,1,1,-2.736834049)"><tspan x="0" y="0" font-family="Arial Unicode MS" font-weight="normal" font-style="normal" font-size="11" fill="#000000">第九sheet</tspan></text></g></g></g><g /></g><g><text><tspan x="0" y="60.75" font-family="Arial Unicode MS" font-weight="normal" font-style="normal" font-size="5.549999714" fill="#ff0000">Evaluation Warning : The document was created with  Spire.XLS for Python</tspan></text></g></g></g></svg>